/* XPM */
static char *e5e9ada0f2a5400fcae23ba4edc76075Imkg4RgZZttR67Lb[] = {
/* columns rows colors chars-per-pixel */
"32 32 5 1 ",
"  c #AB1103",
". c #CA1200",
"X c #98AC42",
"o c #B2CA4C",
"O c #C8D496",
/* pixels */
"OOOOOOOOOOOOOOOOOOOOOOOOOOOOOOOO",
"XoXoXoXoXoXoXoXoXoXoXoXoXoXoXoXo",
"XXoXXXoXXXoXXXoXXXoXXXoXXX.XXXo ",
"XoooXoooXoooXoooXoooXoooXo..Xoo.",
"XoooXoooXoooXoooXoooXoooXo..Xoo.",
"XoooXoooXoooXoooXoooXoooXo.. o.o",
"XXoXXXoXXXoXXXoXXXoXXXoXX .X X.X",
"XoXoXoXoXoXoXoXoXoXoXoXoX.Xo o o",
"XXoXXXoXXXoXXXoXXXoXXXoXX oX X.X",
"XoooXoooXoooXoooXoooXoooX.oo ..o",
"XoooXoooXoooXoooXoooXoooX.ooX..o",
"XoooXoooXoooXoooXoooXoooX.ooX.oo",
"XXoXXXoXXXoXXXoXXXoXXXoXXXoXX oX",
"XoXoXoXoXoXoXoXoXoXoXoXoXoXoX.Xo",
"XXoXXXoXXXoXXXoXXXoXXXoXXXoXX oX",
"XoooXoooXoooXoooXoooXoooXoooXooo",
"XoooXoooXoooXoooXoooXoooXoooXooo",
"XoooXoooXoooXoooXoooXoooXoooX.oo",
"XXoXXXoXXXoXXXoXXXoXXXoXXXoXX oX",
"XoXoXoXoXoXoXoXoXoXoXoXoXoXoXoXo",
"XXoXXXoXXXoXXXoXXXoXXXoXXXoXXXoX",
"XoooXoooXoooXoooXoooXoooXoooXooo",
"XoooXoooXoooXoooXoooXoooXoooXooo",
"XoooXoooXoooXoooXoooXoooXoooXooo",
"XXoXXXoXXXoXXXoXXXoXXXoXXXoXXXoX",
"XoXoXoXoXoXoXoXoXoXoXoXoXoXoXoXo",
"XXoXXXoXXXoXXXoXXXoXXXoXXXoXXXoX",
"XoooXoooXoooXoooXoooXoooXoooXooo",
"XoooXoooXoooXoooXoooXoooXoooXooo",
"XoooXoooXoooXoooXoooXoooXoooXooo",
"OOOOOOOOOOOOOOOOOOOOOOOOOOOOOOOO",
"OOOOOOOOOOOOOOOOOOOOOOOOOOOOOOOO"
};
