/* XPM */
static char *_926f7c5c4034b58aed224d1e6b2941b9QaHf6TQGwlktLwc[] = {
/* columns rows colors chars-per-pixel */
"32 32 5 1 ",
"  c #AB1103",
". c #CA1200",
"X c #98AC42",
"o c #B2CA4C",
"O c #C8D496",
/* pixels */
"OOOOOOOOOOOOOOOOOOOOOOOOOOOOOOOO",
"XoXoXoXoXoXoXoXoXoXoXoXoXoXoXoXo",
"XXoXXXoXXXoXXXoXXXoXXXoXXXoXXXoX",
"XoooXoooXoooXoooXoooXoooXoooXooo",
"XoooXoooXoooXoooXoooXoooXoooXooo",
"XoooXoooXoooXoooXoooXoooXoooXooo",
"XXoXXXoXXXoXXXoXXXoXXXoXXXoXXXoX",
"XoXoXoXoXoXoXoXoXoXoXoXoXoXoXoXo",
"XXoXXXoXXXoXXXoXXXoXXXoXXXoXXXoX",
"XoooXoooXoooXoooXoooXoooXoooXooo",
"XoooXoooXoooXoooXoooXoooXoooXooo",
"XoooXoooXoooXoooXoooXoooXoooXooo",
"XXoXXXoXXXoXXXoXXXoXXXoXX oXXXoX",
"XoXoXoXoXoXoXoXoXoXoXoXoX.XoXoXo",
"XXoXXXoXXXoXXXoXXXoXXXoXX oXXXoX",
"XoooXoooXoooXoooXoooXo.oX.ooXooo",
"XoooXoooXoooXooo .ooXo.oX.ooXooo",
"XoooXoooXoooXoooXo.oXo..X.ooXooo",
"XXoXXXoXXXoXXXoXXX.XX o X oXXXoX",
"XoXoXoXoXoXoXoXoXoX.X.Xo .XoXoXo",
"XXoXXXoXXXoXXXoXXXoX. oXX oXXXoX",
"XoooXoooXoooXoooXoooX.ooX.ooXooo",
"XoooXoooXoooXoooXoooXoooX.ooXooo",
"XoooXoooXoooXoooXoooXoooXoooXooo",
"XXoXXXoXXXoXXXoXXXoXXXoXXXoXXXoX",
"XoXoXoXoXoXoXoXoXoXoXoXoXoXoXoXo",
"XXoXXXoXXXoXXXoXXXoXXXoXXXoXXXoX",
"XoooXoooXoooXoooXoooXoooXoooXooo",
"XoooXoooXoooXoooXoooXoooXoooXooo",
"XoooXoooXoooXoooXoooXoooXoooXooo",
"OOOOOOOOOOOOOOOOOOOOOOOOOOOOOOOO",
"OOOOOOOOOOOOOOOOOOOOOOOOOOOOOOOO"
};
