/* XPM */
static char *_f4b7c194ef24f71bf0a8cc686f27b60cPmI1upJLTzm8IgZ[] = {
/* columns rows colors chars-per-pixel */
"32 32 5 1 ",
"  c #AB1103",
". c #CA1200",
"X c #98AC42",
"o c #B2CA4C",
"O c #C8D496",
/* pixels */
"OOOOOOOOOOOOOOOOOOOOOOOOOOOOOOOO",
"XoXoXoXoXoXoXoXoXoXoXoXoXoXoXoXo",
"XXoXXXoXXXoXXXoXXXoXXXoXXXoXXXoX",
"XoooXoooXoooXoooXoooXoooXoooXooo",
"XoooXoooXoooXoooXoooXoooXoooXooo",
"XoooXoooXoooXoooXoooXoooXoooXooo",
"XXoXXXoXXXoXXXoXXXoXXXoXXXoXXXoX",
"XoXoXoXoXoXoXoXoXoXoXoXoXoXoXoXo",
"XXoXXXoX  .XXXoXXXoXXXoXXXoXXXoX",
"XoooXo..Xoo.XoooXoooXoooXoooXooo",
"XoooXo..Xoo.XoooXoooXoooXoooXooo",
"XoooXooo .ooXoooXoooXoooXoooXooo",
"XXoXXXoX X.XXXoXXXoXXXoXXXoXXXoX",
"XoXoXoXo oX.XoXoXoXoXoXoXoXoXoXo",
"XXoXXXoX Xo XXoXXXoXXXoXXXoXXXoX",
"Xoo. oooXoo.XoooXoooXoooXoooXooo",
"XoooX... o..XoooXoooXoooXoooXooo",
"XoooXoooX.o.XoooXoooXoooXoooXooo",
"XXoXXXoXXXo XXoXXXoXXXoXXXoXXXoX",
"XoXoXoXoXoX.XoXoXoXoXoXoXoXoXoXo",
"XXoXXXoXXXo XXoXXXoXXXoXXXoXXXoX",
"XoooXoooXoooXoooXoooXoooXoooXooo",
"XoooXoooXoooXoooXoooXoooXoooXooo",
"XoooXoooXoooXoooXoooXoooXoooXooo",
"XXoXXXoXXXoXXXoXXXoXXXoXXXoXXXoX",
"XoXoXoXoXoXoXoXoXoXoXoXoXoXoXoXo",
"XXoXXXoXXXoXXXoXXXoXXXoXXXoXXXoX",
"XoooXoooXoooXoooXoooXoooXoooXooo",
"XoooXoooXoooXoooXoooXoooXoooXooo",
"XoooXoooXoooXoooXoooXoooXoooXooo",
"OOOOOOOOOOOOOOOOOOOOOOOOOOOOOOOO",
"OOOOOOOOOOOOOOOOOOOOOOOOOOOOOOOO"
};
