/* XPM */
static char *b29c21688a2041a0cdc176a5c3a64564AoGGh3iByXMcfJdF[] = {
/* columns rows colors chars-per-pixel */
"32 32 5 1 ",
"  c #AB1103",
". c #CA1200",
"X c #98AC42",
"o c #B2CA4C",
"O c #C8D496",
/* pixels */
"OOOOOOOOOOOOOOOOOOOOOOOOOOOOOOOO",
"XoXoXoXoXoXoXoXoXoXoXoXoXoXoXoXo",
"XXoXXXoXXXoXXXoXXXoXXXoXXXoXXXoX",
"XoooXoooXoooXoooXoooXoooXoooXooo",
"XoooXoooXoooXoooXoooXoooXoooXooo",
"XoooXoooXoooXoooXoooXoooXoooXooo",
"XXoXXXoXXXoXXXoXXXoXXXoXXXoXXXoX",
"XoXoXoXoXoXoXoXoXoXoXoXoXoXoXoXo",
"XXoXXXoXXXoXXXoXXXoXXXoXXXoXXXoX",
"XoooXoooXoooXoooXoooXoooXoooXooo",
"XoooXoooXoooXoooXoooXoooXoooXooo",
"XoooXoooXoooXoooXoooXoooXoooXooo",
"XXoXXXoXXXoXXXoXXXoXXXoXXXoXXXoX",
"XoXoXoXoXoXoXoXoXoXoXoXoXoXoXoXo",
"XXoXXXoXXXoXXXoXXXoXXXoXXXoXXXoX",
"XoooXoooXoooXoooXoooXoooXoooXooo",
"XoooXoooXoooXoooXoooXoooXoooXooo",
"XoooXoooXoooXoooXoooXoooXoooXooo",
"XXoXXXoXXXoXXXoXXXoXXXoXXXoXXXoX",
"XoXoXoXoXoX.XoXoXoXoXoXoXoXoXoXo",
"XXoXXXoX  .XXXoXXXoXXXoXXXoXXXoX",
"XoooXo..XoooXoooXoooXoooXoooXooo",
"XoooXo.oXoooXoooXoooXoooXoooXooo",
"XoooXo..XoooXoooXoooXoooXoooXooo",
"XXoXXXo  ..XXXoXXXoXXXoXXXoXXXoX",
"XoXoXoX.XoXoXoXoXoXoXoXoXoXoXoXo",
"XXoXXX. XXoXXXoXXXoXXXoXXXoXXXoX",
"XoooXo..XoooXoooXoooXoooXoooXooo",
"XoooXooo oooXoooXoooXoooXoooXooo",
"XoooXoooX..oXoooXoooXoooXoooXooo",
"OOOOOOOOOOOOOOOOOOOOOOOOOOOOOOOO",
"OOOOOOOOOOOOOOOOOOOOOOOOOOOOOOOO"
};
