/* XPM */
static char *c48dfb43df7d41aa91d66cfc5d7426a7bMJ3b6d1ZoLq46Y0[] = {
/* columns rows colors chars-per-pixel */
"32 32 2 1 ",
"  c None",
". c black",
/* pixels */
"                                ",
"                                ",
"           ..                   ",
"           .....                ",
"          ...  ..               ",
"          ..... .               ",
"          ...... .              ",
"          ..... ..              ",
"          ..... . ..            ",
"          .... ... ..           ",
"          .... ..   .           ",
"          ....  .   .           ",
"          ..... .   .           ",
"          . ...     .           ",
"          ...     ..            ",
"             .....              ",
"                                ",
"                                ",
"                                ",
"                                ",
"                                ",
"                                ",
"                                ",
"                                ",
"                                ",
"                                ",
"                                ",
"                                ",
"                                ",
"                                ",
"                                ",
"                                "
};
